A wonderful little farce, Un Chapeau de Paille d'Italie is somewhat unknown to modern moviegoers, largely because silent films are so out of favor. This is a shame, as Chapeau  is a delightful and charming little affair; while those not used to silent films will have to concentrate a bit harder to pick up the details of its involved plot, it's well worth the effort. Director/adaptor René Clair  has done a marvelous job of capturing those details and of heaping one plot development on top of another in classic farce fashion, until the entire proceedings come tumbling down and all gets resolved. Yet Clair  makes sure that the plot mechanics don't result in a mechanical film. He imbues scenes with lovely little moments, lingering a bit longer after the main actors have left a scene or capturing a delicate arch of an eyebrow that other directors might have missed. He also adds a welcome surreal touch during the sequence in which the hero is fearing that the worst has happened to his beautiful home, but is equally at home with the mundane. (As an example of the latter, the sequence in which a wife is trying to get her husband to pay attention to an undone collar is beautifully realized and quite funny.) Clair's cast is near-perfect, anchored by the sterling "little man" comic performance of Albert Prejean. An Italian Straw Hat is both sweet and amusing, a lovely combination. 

   General
      Complete name : Un chapeau de paille d'Italie.avi
      Format : AVI
      Format/Info : Audio Video Interleave
      File size : 1.42 GiB
      Duration : 1h 45mn
      Overall bit rate : 1 927 Kbps
      Writing application : FairUse Wizard - http://fairusewizard.com
      Writing library : The best and REALLY easy backup tool
   Video #0
      ID : 0
      Format : MPEG-4 Visual
      Format profile : AdvancedSimple@L5
      Format settings, BVOP : Yes
      Format settings, QPel : No
      Format settings, GMC : No warppoints
      Format settings, Matrix : Default (MPEG)
      Muxing mode : Packed bitstream
      Codec ID : XVID
      Codec ID/Hint : XviD
      Duration : 1h 45mn
      Bit rate : 1 529 Kbps
      Width : 640 pixels
      Height : 464 pixels
      Display aspect ratio : 1.379
      Frame rate : 23.976 fps
      Resolution : 24 bits
      Colorimetry : 4:2:0
      Scan type : Progressive
      Bits/(Pixel*Frame) : 0.215
      Stream size : 1.13 GiB (79%)
      Writing library : XviD 1.2.0.dev47 (UTC 2006-11-01)
   Audio #1
      ID : 1
      Format : AC-3
      Format/Info : Audio Coding 3
      Codec ID : 2000
      Duration : 1h 45mn
      Bit rate mode : Constant
      Bit rate : 192 Kbps
      Channel(s) : 2 channels
      Channel positions : L R
      Sampling rate : 48.0 KHz
      Stream size : 145 MiB (10%)
      Alignment : Split accross interleaves
      Interleave, duration : 42 ms (1.00 video frame)
      Interleave, preload duration : 500 ms
   Audio #2
      ID : 2
      Format : AC-3
      Format/Info : Audio Coding 3
      Codec ID : 2000
      Duration : 1h 45mn
      Bit rate mode : Constant
      Bit rate : 192 Kbps
      Channel(s) : 2 channels
      Channel positions : L R
      Sampling rate : 48.0 KHz
      Stream size : 145 MiB (10%)
      Alignment : Split accross interleaves
      Interleave, duration : 42 ms (1.00 video frame)
      Interleave, preload duration : 500 ms
 
http://www.imdb.com/title/tt0018523/

Silent, with English intertitles

French, Spanhish and Portuguese subtitles

Dual audio - musical score (orchestra or piano)

My rip

Rene Clair - Un chapeau de paille d'Italie (1928)